<svg xmlns="http://www.w3.org/2000/svg" width="50" height="50" viewBox="0 0 50 50"><path d="M19.635 11.392c-.046-.002-.091.002-.138.001.054-.239.091-.48.104-.724-.121-2.24-1.716-3.832-3.954-3.955-1.313-.069-2.407.602-3.111 1.582-.701-.925-1.793-1.51-3.113-1.582-2.234-.119-3.842 1.897-3.953 3.955-.014.265.004.518.046.765a5.418 5.418 0 00-.429-.042c-2.414-.131-4.152 2.05-4.272 4.271-.122 2.274 1.799 3.945 3.879 4.234v.04h15.76v-.05c1.981-.336 3.349-2.261 3.453-4.225-.13-2.417-1.852-4.14-4.272-4.27zM44.92 34.746c-.048-.003-.092.001-.138.001.054-.239.09-.481.102-.724-.119-2.24-1.714-3.833-3.953-3.955-1.313-.069-2.407.601-3.109 1.582-.702-.925-1.794-1.51-3.114-1.582-2.234-.12-3.842 1.896-3.952 3.955-.014.265.004.518.045.764a4.562 4.562 0 00-.428-.041c-2.414-.13-4.152 2.05-4.272 4.271-.122 2.271 1.799 3.944 3.879 4.233v.041h15.761v-.051c1.979-.335 3.347-2.261 3.452-4.224-.13-2.416-1.853-4.14-4.273-4.27zM28.396 13.573c2.65-.036 5.152-.07 6.627 1.585 1.078 1.21 1.482 4.54 1.522 6.844h-3.358l4.721 5.485 4.272-5.485h-3.361c-.028-1.948-.301-6.339-2.098-8.355-2.164-2.431-5.454-2.387-8.356-2.347l-.714.008.018 2.274.727-.009zm-7.625 23.073c-2.65.036-5.152.07-6.627-1.585-1.078-1.21-1.482-4.54-1.522-6.844h3.358l-4.721-5.485-4.272 5.485h3.361c.028 1.948.301 6.339 2.098 8.355 2.164 2.431 5.454 2.387 8.356 2.347l.714-.008-.018-2.274-.727.009z"/></svg>