<svg xmlns="http://www.w3.org/2000/svg" width="49.62" height="49.62" viewBox="0 0 49.62 49.62"><path d="M0 32.902h7.836v2.967h5.913v-2.967h8.104v-14.41H0v14.41zm2.215-12.194h17.424v9.98H2.215v-9.98zm2.438 15.217h12.278v.61H4.653zm22.214-16.013l-2.886 2.483 2.886 2.249v-1.768h4.444v-1.197h-4.444zm1.558 7.833h-4.444v1.196h4.444v1.768l2.886-2.483-2.886-2.249zm13.49-11.442c1.526.022 7.705-.062 7.705-2.304 0-2.269-6.176-2.282-7.705-2.304-1.528.021-7.704.035-7.704 2.304s6.176 2.283 7.704 2.304z"/><path d="M41.904 17.174c-1.333-.021-5.889-.039-7.693-1.487v6.347l.009-6.038.011 6.084h.039c1.844 1.403 6.315 1.42 7.635 1.441 1.314.022 5.777-.04 7.627-1.441l.089-.074-.021-6.327c-1.806 1.453-6.364 1.518-7.696 1.495z"/><path d="M41.904 24.462c-1.333-.021-5.889-.039-7.693-1.488v6.347l.009-6.038.011 6.084h.039c1.844 1.403 6.315 1.42 7.635 1.441 1.314.022 5.777-.04 7.627-1.441l.089-.074-.021-6.327c-1.806 1.454-6.364 1.518-7.696 1.496z"/><path d="M41.904 31.575c-1.333-.021-5.889-.039-7.693-1.487v6.347l.009-6.039.011 6.085h.039c1.844 1.403 6.315 1.419 7.635 1.44 1.314.022 5.777-.04 7.627-1.44l.089-.075-.021-6.327c-1.806 1.454-6.364 1.519-7.696 1.496z"/></svg>