<svg xmlns="http://www.w3.org/2000/svg" width="216" height="146" viewBox="0 0 216 146"><path d="M37.607 57.357h112.109V73c0 .706.257 1.316.773 1.833.516.517 1.127.774 1.833.774.761 0 1.386-.244 1.873-.733l26.072-26.071c.488-.489.732-1.114.732-1.874 0-.761-.244-1.386-.734-1.874l-25.988-25.99c-.652-.544-1.305-.815-1.957-.815-.76 0-1.385.244-1.873.733s-.732 1.113-.732 1.874V36.5H37.607c-.706 0-1.317.258-1.833.774S35 38.401 35 39.107V54.75c0 .706.258 1.317.774 1.833s1.127.774 1.833.774zm140.786 31.287H66.285V73.001c0-.706-.258-1.317-.774-1.833s-1.127-.774-1.833-.774c-.761 0-1.385.244-1.874.733l-26.071 26.07c-.488.49-.733 1.114-.733 1.875 0 .705.244 1.304.733 1.791l25.99 26.072c.652.543 1.304.814 1.956.814.706 0 1.317-.258 1.833-.773.516-.517.774-1.127.774-1.834V109.5h112.106c.707 0 1.317-.257 1.834-.773.516-.517.773-1.127.773-1.834V91.25c0-.706-.258-1.316-.773-1.832-.517-.516-1.126-.774-1.833-.774z"/></svg>