<svg xmlns="http://www.w3.org/2000/svg" width="100" height="100" viewBox="0 0 100 100"><path d="M17.031 62.367v-5.332h17.881v5.332H17.031zm16.313-43.29c.951 0 1.727-.774 1.727-1.726s-.775-1.725-1.727-1.725a1.726 1.726 0 000 3.451zm11.195 0a1.726 1.726 0 10-.002-3.45 1.726 1.726 0 00.002 3.45zm-9.627 29.272v-5.333H17.031v5.333h17.881zm0 22.824H10.053V8.2H54.91v30.28H34.912v1.712H14.209v10.979h20.703v3.04H14.209V65.19h20.703v5.983zm5.078-53.821c0 2.509 2.041 4.549 4.549 4.549s4.549-2.04 4.549-4.549c0-2.508-2.041-4.548-4.549-4.548s-4.549 2.04-4.549 4.548zm-11.193 0a4.552 4.552 0 004.547 4.549c2.51 0 4.549-2.04 4.549-4.549a4.552 4.552 0 00-4.549-4.548 4.552 4.552 0 00-4.547 4.548zM14.209 36.958h37.016V25.979H14.209v10.979zm2.822-8.156h31.371v5.333H17.031v-5.333zm24.94 3.215h4.293v-1.489h-4.293v1.489zM70.27 74.184v2.386c6.584.217 11.336.825 11.336 1.545 0 .901-7.436 1.631-16.605 1.631-9.172 0-16.605-.729-16.605-1.631 0-.646 3.834-1.202 9.385-1.466v-2.465H38.1V41.068h51.848v33.115H70.27zm16.271-2.838V43.624H41.504v27.722h45.037zM66.393 36.357a.42.42 0 00.647-.487l-2.074-5.253h3.619c.787.039 3.374.307 5.13 2.03 1.234 1.211 1.834 2.917 1.834 5.218h5.037c0-3.672-1.125-6.638-3.344-8.813-3.607-3.539-8.771-3.482-8.997-3.478l.001.044c-.354-.03-.611-.044-.611-.044l-2.67-.008 2.074-5.253a.42.42 0 00-.647-.488l-10.318 7.933a.422.422 0 000 .668l10.319 7.931zM35.201 75.181a.42.42 0 00-.647.487l2.074 5.253h-3.619c-.787-.039-3.374-.307-5.13-2.03-1.234-1.211-1.834-2.917-1.834-5.218h-5.037c0 3.672 1.125 6.638 3.344 8.813 3.607 3.539 8.771 3.482 8.997 3.478l-.001-.044c.354.03.611.044.611.044l2.67.008-2.074 5.253a.42.42 0 00.647.488L45.52 83.78a.422.422 0 000-.668l-10.319-7.931z"/></svg>