<svg xmlns="http://www.w3.org/2000/svg" width="100" height="100" viewBox="0 0 100 100"><path d="M72.876 74.568a5023.54 5023.54 0 00-13.58-13.021l13.58-13.29v26.311zm-33.791-13.71C34.3 65.746 28.917 71.477 26.209 74.377V48.256l12.876 12.602zm8.457-5.484c.428-.382 1.023-.744 1.277-.818.113.052.423.228 1.041.804 4.714 4.392 16.936 16.135 21.535 20.56H27.507c2.655-2.844 18.618-19.283 20.035-20.546z"/><path d="M49.202 29.092l23.175 16.855-14.528 14.217a889.483 889.483 0 00-6.625-6.268c-.988-.921-1.678-1.325-2.307-1.35-1.1-.038-2.447 1.104-2.707 1.335-1.438 1.283-3.472 3.274-5.723 5.55L26.699 45.937l22.503-16.845z"/></svg>