<!-- Generated by IcoMoon.io -->
<svg version="1.1" xmlns="http://www.w3.org/2000/svg" width="321" height="300" viewBox="0 0 321 300">
<title>code2</title>
<path d="M103.292 234.208l-8.37 8.37c-2.176 2.176-5.525 2.176-7.701 0l-78.013-78.013c-2.176-2.176-2.176-5.525 0-7.701l78.013-78.013c2.176-2.176 5.525-2.176 7.701 0l8.37 8.37c2.176 2.176 2.176 5.525 0 7.701l-65.792 65.792 65.792 65.792c2.176 2.176 2.176 5.525 0 7.701zM202.232 55.58l-62.444 216.127c-0.837 2.846-3.85 4.52-6.529 3.683l-10.38-2.846c-2.846-0.837-4.52-3.85-3.683-6.696l62.444-216.127c0.837-2.846 3.85-4.52 6.529-3.683l10.38 2.846c2.846 0.837 4.52 3.85 3.683 6.696zM312.221 164.565l-78.013 78.013c-2.176 2.176-5.525 2.176-7.701 0l-8.37-8.37c-2.176-2.176-2.176-5.525 0-7.701l65.792-65.792-65.792-65.792c-2.176-2.176-2.176-5.525 0-7.701l8.37-8.37c2.176-2.176 5.525-2.176 7.701 0l78.013 78.013c2.176 2.176 2.176 5.525 0 7.701z"></path>
</svg>
