<!-- Generated by IcoMoon.io -->
<svg version="1.1" xmlns="http://www.w3.org/2000/svg" width="171" height="300" viewBox="0 0 171 300">
<title>code-fork</title>
<path d="M48.214 246.429c0-8.873-7.199-16.071-16.071-16.071s-16.071 7.199-16.071 16.071 7.199 16.071 16.071 16.071 16.071-7.199 16.071-16.071zM48.214 53.571c0-8.873-7.199-16.071-16.071-16.071s-16.071 7.199-16.071 16.071 7.199 16.071 16.071 16.071 16.071-7.199 16.071-16.071zM155.357 75c0-8.873-7.199-16.071-16.071-16.071s-16.071 7.199-16.071 16.071 7.199 16.071 16.071 16.071 16.071-7.199 16.071-16.071zM171.429 75c0 11.886-6.529 22.266-16.071 27.79-0.502 60.435-43.359 73.828-71.819 82.868-26.618 8.37-35.324 12.388-35.324 28.627v4.353c9.542 5.525 16.071 15.904 16.071 27.79 0 17.745-14.397 32.143-32.143 32.143s-32.143-14.397-32.143-32.143c0-11.886 6.529-22.266 16.071-27.79v-137.277c-9.542-5.525-16.071-15.904-16.071-27.79 0-17.745 14.397-32.143 32.143-32.143s32.143 14.397 32.143 32.143c0 11.886-6.529 22.266-16.071 27.79v83.203c8.538-4.185 17.578-7.031 25.781-9.542 31.138-9.877 48.884-17.243 49.219-52.232-9.542-5.525-16.071-15.904-16.071-27.79 0-17.745 14.397-32.143 32.143-32.143s32.143 14.397 32.143 32.143z"></path>
</svg>
