<?xml version="1.0" encoding="utf-8"?>
<!-- Generator: Adobe Illustrator 22.0.1, SVG Export Plug-In . SVG Version: 6.00 Build 0)  -->
<svg version="1.1" id="レイヤー_1" xmlns="http://www.w3.org/2000/svg" xmlns:xlink="http://www.w3.org/1999/xlink" x="0px"
	 y="0px" viewBox="0 0 200 200" style="enable-background:new 0 0 200 200;" xml:space="preserve">
<style type="text/css">
	.st0{fill:#1EBE8C;}
</style>
<title>file-text-o</title>
<path class="st0" d="M164.2,52.7c3.4,3.4,6.2,10.2,6.2,15v105.6c0,4.8-3.9,8.8-8.8,8.8H38.4c-4.8-0.1-8.8-4-8.8-8.9V26.6
	c0-4.8,3.9-8.8,8.8-8.8h82.1c4.8,0,11.7,2.9,15,6.2L164.2,52.7z M123.4,30.3v34.4h34.4c-0.6-1.6-1.4-3.1-2.1-3.8l-28.7-28.7
	C126.5,31.7,125.1,30.9,123.4,30.3L123.4,30.3z M158.7,170.4V76.5h-38.1c-4.8,0-8.8-3.9-8.8-8.8V29.6H41.3v140.7L158.7,170.4
	L158.7,170.4z M64.8,91.1c0-1.6,1.2-3,3-3h64.6c1.6,0,3,1.2,3,3V97c0,1.6-1.2,3-3,3H67.7c-1.6,0-3-1.2-3-3
	C64.8,97,64.8,91.1,64.8,91.1z M132.3,111.7c1.6,0,3,1.2,3,3v5.8c0,1.6-1.2,3-3,3H67.7c-1.6,0-3-1.2-3-3v-5.8c0-1.6,1.2-3,3-3
	C67.7,111.7,132.3,111.7,132.3,111.7z M132.3,135.2c1.6,0,3,1.2,3,3v5.8c0,1.6-1.2,3-3,3H67.7c-1.6,0-3-1.2-3-3v-5.8
	c0-1.6,1.2-3,3-3H132.3z"/>
</svg>
