<?xml version="1.0" encoding="utf-8"?>
<!-- Generator: Adobe Illustrator 22.0.1, SVG Export Plug-In . SVG Version: 6.00 Build 0)  -->
<svg version="1.1" id="レイヤー_1" xmlns="http://www.w3.org/2000/svg" xmlns:xlink="http://www.w3.org/1999/xlink" x="0px"
	 y="0px" viewBox="0 0 257 300" style="enable-background:new 0 0 257 300;" xml:space="preserve">
<style type="text/css">
	.st0{fill:#1EBE8C;}
</style>
<title>file-text</title>
<path class="st0" d="M245.8,79.7c1.7,1.7,3.2,3.7,4.7,6h-79v-79c2.3,1.5,4.4,3,6,4.7L245.8,79.7z M166.1,107.1h91.1v176.8
	c0,8.9-7.2,16.1-16.1,16.1h-225C7.2,300,0,292.8,0,283.9V16.1C0,7.2,7.2,0,16.1,0H150v91.1C150,99.9,157.2,107.1,166.1,107.1
	L166.1,107.1z M192.9,230.4v-10.7c0-3-2.3-5.4-5.4-5.4H69.6c-3,0-5.4,2.3-5.4,5.4v10.7c0,3,2.3,5.4,5.4,5.4h117.9
	C190.5,235.7,192.9,233.4,192.9,230.4z M192.9,187.5v-10.7c0-3-2.3-5.4-5.4-5.4H69.6c-3,0-5.4,2.3-5.4,5.4v10.7c0,3,2.3,5.4,5.4,5.4
	h117.9C190.5,192.9,192.9,190.5,192.9,187.5z M192.9,144.6v-10.7c0-3-2.3-5.4-5.4-5.4H69.6c-3,0-5.4,2.3-5.4,5.4v10.7
	c0,3,2.3,5.4,5.4,5.4h117.9C190.5,150,192.9,147.7,192.9,144.6z"/>
</svg>
