<svg id="レイヤー_1" data-name="レイヤー 1" xmlns="http://www.w3.org/2000/svg" viewBox="0 0 62.03 62.03"><defs><style>.cls-1{fill:#1ebe8c;}</style></defs><title>header-icon</title><path class="cls-1" d="M30.37,11.15,28,16l.11,2.86,6.05,2.71L36.93,21l1.66-6.93-2.78-3.17ZM23.89,9.59l-1.12,1.72,4.4,3.57,2-4.12L26.68,9A28.14,28.14,0,0,0,23.89,9.59ZM38.12,21.24,42.87,24l1.49-8L39.7,14.67ZM27.83,27l-.21-6.59-6.07,1.35.26,2.37,1.9,2.61Zm22.81-2.91-5.23-7-1.32,7.57,1.42.83ZM31.91,29.9l-3.6-1.66-3.81,0,.32,6.8L29,36.76l5.17-4ZM45.12,42.08l-1.71-4.66-1.32.09-4.53.77.72,7.33.08,0,2.45,1.89ZM29,27.25l2.79,1.28L33.26,23l-4.42-2.14Zm8,18.2-.72-7.33L32.86,35.7l-3,2.28L31,45ZM24.86,36.82l-.49,6.9,5.38,1.15-1-6.57Zm1.88-20.73L22.43,12.6l-1,7.57L26.89,19ZM23,43.48l.34-6.71-6.75-.92,2.75,6.8ZM53.13,20.93a26.63,26.63,0,0,0-6.38-6.88l-1,1.48,5.82,7.84ZM11.82,35.49l-1.37,6.17.77,4.73,6.72-3.86L15.2,35.75Zm40.39-3.71L57,30.86a26.66,26.66,0,0,0-1.26-4.74L52.24,25Zm2.93-7.13c-.39-.88-.83-1.73-1.3-2.56l-1.12,1.77ZM35.77,33.4,34,34.79l3,2.35,4.31-.73L40.56,32Zm8.89-6.56-7.2-4.39-2.89.65-1.65,6.07L35.14,32l5.92-1.85,3.42-1.82ZM21.09,10.5l.66.16.34-.52C21.75,10.25,21.42,10.37,21.09,10.5ZM51.67,40.33,49,37l-4.29.3,1.52,4.16ZM19.89,21.07l-4.78-2.86L15,23.08l5.09.31Zm3,7-2.8-3.67L15,24.31l1,10.29,7.3.91ZM40.25,48.64l-2.49-1.92-6.55-.45,0,5,5.37,0Zm5.16-19-3.67,1.87.81,4.73,6.33-.44,1.87-3.07ZM31.16,52.44H31L29.5,59l7,2.25,1.5-.39-1.79-8.41ZM30,46.19h0v-.06l-5.81-1.22L24.92,54l3.52,4.23L30,51.76Zm7.42,5.94,1.79,8.39A26.49,26.49,0,0,0,46,57.08l0-4-4.8-3.7ZM24.1,55.05l-5.88.51.37,3.4a26.27,26.27,0,0,0,9.14,2.77l.35-1.84h0l0-.19ZM29,61.82c.6,0,1.19.09,1.79.09a27.84,27.84,0,0,0,3.18-.2l-4.67-1.49Zm28.2-29.76-5.17,1-2,3.29,3,3.71,4-.69a26.12,26.12,0,0,0,.34-4.08A26.55,26.55,0,0,0,57.15,32.06ZM47.27,56.14a26.73,26.73,0,0,0,2.5-2.25l-2.47-.37Zm6.21-10.65,0,.17,1.7.13a27.07,27.07,0,0,0,1.62-5.15l-3.44.59Zm-.39,4.24a25.94,25.94,0,0,0,1.6-2.87l-1.17-.09Zm-7-7-4.37,5.54,5,4,4,.58c.35-.4.69-.81,1-1.22l.62-5.22-.17-4.95ZM22.55,44.6l-4.18-.92L11.7,47.52l5.9,6.87,5.75-.56ZM13.91,17.53,12,16.42a26.85,26.85,0,0,0-3.88,4.93l-.75,3.86,6.43-2Zm.93,17-1-10.09L7.06,26.57l.08,7.34Zm6.47-22.7-2-.51a26.74,26.74,0,0,0-6.39,4.3l7.36,4.34ZM51,25.28,46.3,26.52l-.41,2.32L51,31.5ZM37,10.36l-.05,0,2.62,3,.4.09v0l4.8,1.36,1-1.52a26.46,26.46,0,0,0-8.64-3.86Zm-26.42,25-4-.31-2.44.42a26.25,26.25,0,0,0,.53,5.13l4.7.35ZM9.93,47.13l.16-.09L9.31,42.2,5,41.87A26.44,26.44,0,0,0,7.83,48.8L10,47.19Zm.74,1-2.2,1.67a26.72,26.72,0,0,0,6.41,6.79l1.87-1.38ZM5.85,26.66l-.29.06a26.49,26.49,0,0,0-1.39,7.54L5.93,34ZM15.9,57.4c.45.3.92.56,1.39.84l-.19-1.73ZM29.53,8.71l-1,.07,1.67,1.16,5.72-.25.06-.5a26.21,26.21,0,0,0-4-.49V2.46H42.61V0H18.87V2.46H29.53Z"/></svg>