<svg id="レイヤー_1" data-name="レイヤー 1" xmlns="http://www.w3.org/2000/svg" xmlns:xlink="http://www.w3.org/1999/xlink" viewBox="0 0 64.65 64.65"><defs><style>.cls-1,.cls-5{fill:none;}.cls-2{fill:#1ebe8c;}.cls-3{clip-path:url(#clip-path);}.cls-4{fill:#fff;}.cls-5{stroke:#fff;stroke-linejoin:round;stroke-width:1.94px;}</style><clipPath id="clip-path"><circle class="cls-1" cx="32.32" cy="34.79" r="21.37"/></clipPath></defs><title>icon-logo</title><rect class="cls-2" width="64.65" height="64.65" rx="14.16" ry="14.16"/><polyline class="cls-1" points="27.05 35.08 30.97 36.65 35.95 32.79 40.7 31.29 43.84 29.67 44.2 27.7 37.74 23.9 34.88 24.43 29.99 22.21 24.28 23.43 24.47 26 26.65 28.78 27.04 35.34 26.68 41.54 26.35 42.46 27.11 50.65"/><g class="cls-3"><path class="cls-4" d="M15.68,12.76c.93-1.42,2.21-3.41,2.85-4.45-.76,0-2.07-.13-4.38-.36L9.86,7.52l1.23,5.13Z"/><path class="cls-4" d="M19.57,8.47c-.07.13-.17.29-.29.47C19,9.4,18.6,10,18.1,10.82L16.73,13,25.11,15l1.76-2.72C25.79,11.68,22.14,9.79,19.57,8.47Z"/><polygon class="cls-4" points="29.11 19.38 25.65 16.57 24.82 22.66 29.24 21.72 29.11 19.38"/><polygon class="cls-4" points="16.29 13.84 15.34 17.43 23.89 22.47 24.75 15.94 16.29 13.84"/><path class="cls-4" d="M8,13.14c.37.8,1.24,2.41,2.08,3.92l4.34.11.91-3.44-4.75-.11v0Z"/><path class="cls-4" d="M19,4.32l.8,3.16c1.83.94,5.23,2.69,7,3.64l-1.41-4L24.17,4.83Z"/><polygon class="cls-4" points="23.61 23.38 19.78 21.08 19.68 24.99 23.76 25.23 23.61 23.38"/><polygon class="cls-4" points="30.96 28.33 33.2 29.36 34.35 24.88 30.8 23.17 30.96 28.33"/><polygon class="cls-4" points="15.15 18.45 13.54 26.69 18.7 25.06 18.82 20.53 15.15 18.45"/><polygon class="cls-4" points="10.03 18.04 7.88 21.45 13.46 23.29 14.21 18.14 10.03 18.04"/><polygon class="cls-4" points="26.4 34.97 26.03 29.01 23.77 26.06 19.73 25.97 20.55 34.23 26.4 34.97"/><polygon class="cls-4" points="19.56 34.16 18.76 26.06 13.32 27.79 13.38 33.68 19.56 34.16"/><polygon class="cls-4" points="12.47 26.85 13.3 24.26 7.5 22.35 7.47 27.81 12.47 26.85"/><polygon class="cls-4" points="29.82 22.87 24.95 23.95 25.15 25.86 26.68 27.95 29.98 28.16 29.82 22.87"/><polygon class="cls-4" points="12.41 33.72 12.35 27.86 7.29 28.84 5.68 31.48 8.12 34.45 12.41 33.72"/><polygon class="cls-4" points="7.72 45.21 9.93 48.66 15.65 44.34 15.62 44.29 15.75 44.22 15.13 40.33 8.49 39.84 7.72 45.21"/><polygon class="cls-4" points="53.31 44.2 50.61 44 49.83 49.37 52.04 52.82 52.49 52.48 53.31 44.2"/><polygon class="cls-4" points="8.49 38.86 15.16 39.36 16.16 34.87 12.92 34.62 8.42 35.39 8.49 38.86"/><polygon class="cls-4" points="16.66 43.7 22.05 40.6 19.85 35.16 17.14 34.95 16.04 39.9 16.66 43.7"/><polygon class="cls-4" points="31.72 43.54 31.7 43.53 31.7 43.49 27.03 42.51 27.65 49.81 30.47 53.2 31.69 48 31.72 43.54"/><polygon class="cls-4" points="35.4 25 34.07 29.88 35.86 32.17 40.61 30.69 43.35 29.23 43.49 28.01 37.72 24.48 35.4 25"/><polygon class="cls-4" points="48.58 31.75 48.6 26.75 44.81 27.75 44.48 29.61 48.58 31.75"/><polygon class="cls-4" points="31.59 36.95 32.55 42.62 37.38 42.94 36.8 37.06 34.02 35.12 31.59 36.95"/><path class="cls-4" d="M3.93,66.41c3.06.33,7.4.76,8.89.82l-1.28-5.11L11,62v0L5.2,61.74Z"/><polygon class="cls-4" points="37.95 56.97 31.13 54.8 30.29 59.33 30.41 59.38 34.18 60.92 37.95 56.97"/><polygon class="cls-4" points="5.65 55.96 10.8 54 9.61 49.86 3.63 51.55 5.65 55.96"/><polygon class="cls-4" points="33.26 30.46 30.38 29.13 27.31 29.15 27.57 34.61 30.89 35.97 35.03 32.77 33.26 30.46"/><polygon class="cls-4" points="42.49 36.5 41.43 36.57 37.8 37.19 38.37 43.07 38.44 43.1 40.41 44.62 43.86 40.24 42.49 36.5"/><polygon class="cls-4" points="39.96 45.5 37.96 43.96 32.7 43.6 32.67 47.58 36.98 47.6 39.96 45.5"/><polygon class="cls-4" points="29.37 59.99 22.51 56.96 18.18 62.43 19.84 65.66 23.84 65.59 29.37 59.99"/><polygon class="cls-4" points="21.78 50.12 26.39 49.66 25.75 42.26 22.4 41.52 17.04 44.6 21.78 50.12"/><polygon class="cls-4" points="20.93 35.24 23.14 40.7 26.08 41.36 26.35 35.97 20.93 35.24"/><polygon class="cls-4" points="6.66 45.73 6.66 45.73 3.5 45.25 3.45 50.59 9 49.02 6.92 45.77 6.66 45.73"/><polygon class="cls-4" points="48.77 49.89 48.77 49.89 45.62 49.42 45.56 54.75 51.11 53.18 49.03 49.93 48.77 49.89"/><polygon class="cls-4" points="31.53 42.48 30.75 37.2 27.61 36.01 27.21 41.55 31.53 42.48"/><polygon class="cls-4" points="11.78 53.85 16.32 54.35 21.09 50.81 16.22 45.14 10.5 49.45 11.78 53.85"/><path class="cls-4" d="M17.41,63.06l-4.82-.77,1.27,5.07c1.84.94,5.23,2.68,7,3.63l-1.41-4Z"/><polygon class="cls-4" points="21.38 51.81 16.98 55.08 17.84 61.29 21.85 56.21 21.38 51.81"/><polygon class="cls-4" points="30.18 54.53 30.16 54.53 30.2 54.37 26.99 50.65 22.27 51.05 22.81 56.03 29.37 58.92 30.18 54.53"/><polygon class="cls-4" points="10.96 54.99 2.09 58.36 5.02 60.76 11.38 61.05 10.96 54.99"/><polygon class="cls-4" points="16.02 55.3 11.92 54.85 12.37 61.26 16.95 62 16.02 55.3"/><polygon class="cls-4" points="32.66 48.55 32.66 48.55 32.56 48.55 31.33 53.84 38.33 56.07 36.74 48.58 32.66 48.55"/><polygon class="cls-4" points="52.17 55.69 51.69 54.02 45.72 55.71 47.73 60.12 51.89 58.54 52.17 55.69"/><polygon class="cls-4" points="37.34 66.61 39.71 70.06 45.02 70.48 46.37 65.57 43.15 62.94 37.34 66.61"/><polygon class="cls-4" points="37.85 10.98 37.36 14.78 37.33 14.81 39.42 17.19 39.75 17.27 39.74 17.29 43.59 18.38 45.18 15.94 44.9 11.11 44.89 11.11 44.9 11.1 44.88 10.82 42.47 7.29 37.85 10.98"/><polygon class="cls-4" points="54.44 32.77 54.43 32.02 49.37 33 47.76 35.64 50.2 38.62 53.92 37.98 54.44 32.77"/><polygon class="cls-4" points="46.14 15.66 52.14 16.66 50.92 11.58 45.88 11.19 46.14 15.66"/><polygon class="cls-4" points="53.3 44.29 50.76 44.1 52.1 52.75 52.49 52.46 53.3 44.29"/><polygon class="cls-4" points="55.48 22.28 52.12 22.2 49.97 25.61 54.98 27.26 55.48 22.28"/><path class="cls-4" d="M49.06,25.22l2.23-3.53a47,47,0,0,1-2.36-4.58l-3-.5L44.4,18.93Z"/><path class="cls-4" d="M56.48,12.14l-.25,0-4.29-.43,1.23,5.13,2.84.07Z"/><path class="cls-4" d="M55.91,17.85l-3.26-.07v0l-2.59-.44c.38.8,1.24,2.41,2.08,3.92l3.43.09Z"/><polygon class="cls-4" points="48.38 32.75 44.1 30.27 41.15 31.77 41.8 35.57 46.88 35.21 48.38 32.75"/><polygon class="cls-4" points="43.51 36.43 44.73 39.76 49.12 38.83 46.95 36.18 43.51 36.43"/><polygon class="cls-4" points="36.36 33.27 34.95 34.39 37.38 36.27 40.83 35.68 40.21 32.12 36.36 33.27"/><polygon class="cls-4" points="49.53 39.74 44.69 40.77 41.18 45.21 45.19 48.41 49.05 48.98 49.67 43.72 49.53 39.74"/><polygon class="cls-4" points="53.83 38.98 50.5 39.55 50.58 42.97 50.6 43.11 53.4 43.32 53.83 38.98"/><polygon class="cls-4" points="36.39 15.22 32.02 15.41 30.09 19.33 30.17 21.62 35.03 23.8 37.29 23.32 38.63 17.76 36.39 15.22"/><polygon class="cls-4" points="25.93 15.54 29.46 18.4 31.09 15.1 27.73 12.77 25.93 15.54"/><polygon class="cls-4" points="39.52 18.24 38.25 23.51 42.06 25.73 43.25 19.3 39.52 18.24"/><polygon class="cls-4" points="36.87 10.98 29.88 6.69 26.25 6.75 28 11.76 28.27 11.94 28.26 11.95 31.86 14.44 36.45 14.24 36.87 10.98"/><polygon class="cls-4" points="54.64 30.74 54.89 28.26 49.58 26.51 49.56 31.97 54.55 31.01 54.64 30.74"/><polygon class="cls-4" points="44.1 20.17 43.04 26.24 44.17 26.91 48.3 25.82 44.1 20.17"/><polygon class="cls-4" points="44.62 49.1 40.77 46.13 37.67 48.31 39.33 56.05 44.55 54.99 44.62 49.1"/><polygon class="cls-4" points="51.78 59.62 44.18 62.52 47.11 64.92 51.24 65.11 51.78 59.62"/><polygon class="cls-4" points="39.81 56.95 43.52 61.73 46.82 60.47 44.76 55.95 39.81 56.95"/><polygon class="cls-4" points="34.2 61.98 30.33 60.4 24.84 65.97 31.44 70.01 36.06 66.31 34.2 61.98"/><polygon class="cls-4" points="38.91 57.37 35.03 61.44 36.88 65.75 42.6 62.13 38.91 57.37"/></g><line class="cls-5" x1="22.8" y1="7.46" x2="41.85" y2="7.46"/><line class="cls-5" x1="32.32" y1="13.66" x2="32.32" y2="7.46"/></svg>