<?xml version="1.0" encoding="utf-8"?>
<!-- Generator: Adobe Illustrator 22.0.1, SVG Export Plug-In . SVG Version: 6.00 Build 0)  -->
<svg version="1.1" id="レイヤー_1" xmlns="http://www.w3.org/2000/svg" xmlns:xlink="http://www.w3.org/1999/xlink" x="0px"
	 y="0px" viewBox="0 0 257 300" style="enable-background:new 0 0 257 300;" xml:space="preserve">
<style type="text/css">
	.st0{fill:#1EBE8C;}
</style>
<title>inbox2</title>
<path class="st0" d="M171.3,160.7h52.9c-0.3-0.8-0.5-1.8-0.8-2.7l-35.5-83H69.3l-35.5,83c-0.3,0.8-0.5,1.8-0.8,2.7h52.9l15.9,32.1
	h53.6L171.3,160.7z M257.1,165.7v80.7c0,5.9-4.9,10.7-10.7,10.7H10.7c-5.9,0-10.7-4.9-10.7-10.7v-80.7c0-6,1.8-14.9,4.2-20.6
	L44,52.7c2.3-5.5,9-9.9,14.9-9.9h139.3c5.9,0,12.6,4.4,14.9,9.9l39.8,92.4C255.3,150.8,257.1,159.7,257.1,165.7L257.1,165.7z"/>
</svg>
