<?xml version="1.0" encoding="utf-8"?>
<!-- Generator: Adobe Illustrator 22.0.1, SVG Export Plug-In . SVG Version: 6.00 Build 0)  -->
<svg version="1.1" id="レイヤー_1" xmlns="http://www.w3.org/2000/svg" xmlns:xlink="http://www.w3.org/1999/xlink" x="0px"
	 y="0px" viewBox="0 0 300 300" style="enable-background:new 0 0 300 300;" xml:space="preserve">
<style type="text/css">
	.st0{fill:#1EBE8C;}
</style>
<title>lock</title>
<path class="st0" d="M188.7,100.2V75c0-21.1-17.6-38.7-38.7-38.7S111.3,53.9,111.3,75v25.2H188.7z M150,212.7
	c13.5,0,25.2-11.7,25.2-25.2s-11.7-25.2-25.2-25.2s-25.2,11.7-25.2,25.2S136.5,212.7,150,212.7z M225,100.2
	c13.5,0,25.2,11.1,25.2,24.6v125.4c0,13.5-11.7,24.6-25.2,24.6H75c-13.5,0-25.2-11.1-25.2-24.6V124.8c0-13.5,11.7-24.6,25.2-24.6
	h12.3V75c0-34.6,28.1-62.7,62.7-62.7s62.7,28.1,62.7,62.7v25.2L225,100.2L225,100.2z"/>
</svg>
