<?xml version="1.0" encoding="utf-8"?>
<!-- Generator: Adobe Illustrator 22.0.1, SVG Export Plug-In . SVG Version: 6.00 Build 0)  -->
<svg version="1.1" id="レイヤー_1" xmlns="http://www.w3.org/2000/svg" xmlns:xlink="http://www.w3.org/1999/xlink" x="0px"
	 y="0px" viewBox="0 0 463.9 64.2" style="enable-background:new 0 0 463.9 64.2;" xml:space="preserve">
<style type="text/css">
	.st0{enable-background:new    ;}
	.st1{fill:#6E6E6E;}
	.st2{fill:#1EBE8C;}
</style>
<title>logo-quantify-dark</title>
<g class="st0">
	<path class="st1" d="M77.2,63.4V3.9h24.6c2.6,0,4.9,0.5,7.1,1.6c2.2,1.1,4,2.5,5.6,4.3c1.6,1.8,2.8,3.8,3.7,6
		c0.9,2.2,1.3,4.5,1.3,6.8c0,2.5-0.4,4.8-1.3,7.1c-0.8,2.3-2,4.3-3.5,6c-1.5,1.7-3.3,3.1-5.4,4.2c-2.1,1.1-4.4,1.6-7,1.6H83.1v22
		H77.2z M83.1,36.2h19c1.7,0,3.3-0.4,4.7-1.1c1.4-0.8,2.6-1.8,3.6-3c1-1.3,1.8-2.7,2.3-4.4c0.6-1.6,0.8-3.4,0.8-5.2
		c0-1.8-0.3-3.6-1-5.2c-0.6-1.6-1.5-3.1-2.6-4.3c-1.1-1.2-2.4-2.2-3.9-2.9c-1.5-0.7-3-1-4.7-1H83.1V36.2z"/>
</g>
<g class="st0">
	<path class="st1" d="M144.3,64.2c-3.2,0-6.1-0.6-8.8-1.8c-2.7-1.2-5-2.8-6.9-4.9c-2-2.1-3.5-4.5-4.6-7.2s-1.6-5.7-1.6-8.8
		c0-3.1,0.5-6,1.6-8.7c1.1-2.7,2.6-5.1,4.5-7.1c1.9-2,4.2-3.7,6.9-4.9c2.7-1.2,5.6-1.8,8.7-1.8c3.2,0,6.1,0.6,8.8,1.8
		c2.7,1.2,4.9,2.8,6.8,4.9c1.9,2.1,3.4,4.4,4.4,7.1c1.1,2.7,1.6,5.5,1.6,8.5c0,0.4,0,0.9,0,1.3s0,0.8-0.1,0.9h-37.4
		c0.2,2.3,0.7,4.5,1.6,6.5c0.9,2,2.1,3.7,3.6,5.2c1.5,1.5,3.1,2.6,5,3.4c1.9,0.8,3.9,1.2,6,1.2c1.4,0,2.8-0.2,4.2-0.6
		c1.4-0.4,2.7-0.9,3.9-1.6c1.2-0.7,2.2-1.5,3.2-2.5c0.9-1,1.7-2.1,2.2-3.2l4.9,1.3c-0.7,1.6-1.6,3.1-2.8,4.4
		c-1.2,1.3-2.7,2.5-4.3,3.4c-1.6,1-3.4,1.7-5.4,2.3C148.5,64,146.4,64.2,144.3,64.2z M160.4,39.2c-0.2-2.3-0.7-4.5-1.6-6.4
		c-0.9-1.9-2.1-3.6-3.5-5c-1.4-1.4-3.1-2.5-4.9-3.3c-1.9-0.8-3.9-1.2-6-1.2c-2.1,0-4.1,0.4-6,1.2c-1.9,0.8-3.6,1.9-5,3.3
		c-1.4,1.4-2.6,3.1-3.4,5c-0.9,2-1.4,4.1-1.6,6.4H160.4z"/>
</g>
<g class="st0">
	<path class="st1" d="M194.9,24.7c-3.9,0.1-7.2,1.2-10.1,3.2c-2.8,2-4.9,4.8-6,8.3v27.2h-5.7V19.7h5.4v10.5c1.6-3.4,3.8-6,6.5-7.9
		c2.7-1.9,5.7-2.8,8.8-2.8c0.4,0,0.8,0,1.1,0.1V24.7z"/>
</g>
<g class="st0">
	<path class="st1" d="M215,64.2c-3.4,0-6.7-0.6-10-1.7c-3.2-1.1-6-2.7-8.4-4.9l2.6-3.9c2.5,2,5,3.5,7.5,4.5c2.5,1,5.3,1.5,8.2,1.5
		c3.5,0,6.3-0.7,8.4-2.1c2.1-1.4,3.1-3.4,3.1-6.1c0-1.2-0.3-2.2-0.8-3.1c-0.6-0.8-1.4-1.5-2.5-2.1c-1.1-0.6-2.5-1.2-4.1-1.6
		c-1.6-0.5-3.6-1-5.7-1.5c-2.5-0.6-4.7-1.2-6.5-1.8c-1.8-0.6-3.4-1.3-4.6-2.1c-1.2-0.8-2.1-1.7-2.7-2.9c-0.6-1.1-0.9-2.6-0.9-4.3
		c0-2.2,0.4-4.1,1.3-5.8c0.9-1.7,2-3.1,3.5-4.1c1.5-1.1,3.2-1.9,5.2-2.5c2-0.6,4.1-0.8,6.3-0.8c3.4,0,6.4,0.5,9.1,1.6
		c2.7,1.1,4.9,2.5,6.6,4.3l-2.8,3.4c-1.6-1.7-3.6-2.9-5.9-3.8c-2.3-0.8-4.7-1.3-7.2-1.3c-1.5,0-2.9,0.2-4.2,0.5
		c-1.3,0.3-2.4,0.8-3.4,1.5c-1,0.7-1.7,1.5-2.3,2.6c-0.6,1-0.8,2.3-0.8,3.6c0,1.2,0.2,2.1,0.6,2.8c0.4,0.7,1,1.4,1.9,1.9
		c0.9,0.5,2,1,3.4,1.4c1.4,0.4,3,0.9,5,1.3c2.8,0.7,5.3,1.3,7.4,2c2.1,0.7,3.9,1.5,5.3,2.3c1.4,0.9,2.5,2,3.2,3.3
		c0.7,1.3,1.1,2.8,1.1,4.7c0,4-1.5,7.2-4.6,9.6C224.3,63,220.1,64.2,215,64.2z"/>
</g>
<g class="st0">
	<path class="st1" d="M258,64.2c-3.2,0-6.1-0.6-8.7-1.8c-2.6-1.2-4.9-2.8-6.8-4.9c-1.9-2.1-3.4-4.5-4.5-7.2
		c-1.1-2.7-1.6-5.6-1.6-8.6c0-3.1,0.5-6,1.6-8.7c1.1-2.7,2.6-5.1,4.5-7.2c1.9-2.1,4.2-3.7,6.8-4.9c2.6-1.2,5.5-1.8,8.6-1.8
		c3.1,0,6,0.6,8.7,1.8c2.7,1.2,4.9,2.9,6.9,4.9c1.9,2.1,3.4,4.5,4.5,7.2c1.1,2.7,1.6,5.6,1.6,8.7c0,3-0.5,5.9-1.6,8.6
		c-1.1,2.7-2.6,5.1-4.5,7.2c-1.9,2.1-4.2,3.7-6.9,4.9C264.2,63.6,261.2,64.2,258,64.2z M242.2,41.8c0,2.5,0.4,4.7,1.3,6.8
		c0.8,2.1,2,3.9,3.4,5.5c1.4,1.6,3.1,2.8,5,3.7c1.9,0.9,4,1.3,6.2,1.3s4.2-0.5,6.2-1.4c1.9-0.9,3.6-2.2,5.1-3.8
		c1.5-1.6,2.6-3.4,3.4-5.6s1.3-4.4,1.3-6.9c0-2.4-0.4-4.7-1.3-6.8c-0.8-2.1-2-4-3.4-5.6c-1.5-1.6-3.1-2.8-5.1-3.8
		c-1.9-0.9-4-1.4-6.2-1.4s-4.2,0.5-6.1,1.4s-3.6,2.2-5,3.8c-1.5,1.6-2.6,3.5-3.4,5.7C242.6,37,242.2,39.3,242.2,41.8z"/>
</g>
<g class="st0">
	<path class="st1" d="M324.2,63.4h-5.7V39c0-5.2-0.8-9-2.3-11.3c-1.5-2.3-3.9-3.5-7.1-3.5c-1.7,0-3.4,0.3-5,0.9
		c-1.7,0.6-3.2,1.5-4.7,2.6c-1.4,1.1-2.7,2.4-3.8,4c-1.1,1.5-1.9,3.2-2.4,5v26.7h-5.7V19.7h5.2v9.9c1.8-3.2,4.3-5.8,7.7-7.7
		c3.3-2,6.9-2.9,10.9-2.9c2.4,0,4.4,0.4,6.1,1.3c1.7,0.9,3,2.2,4,3.8s1.7,3.6,2.2,5.9s0.7,4.9,0.7,7.8V63.4z"/>
	<path class="st1" d="M334.7,10.6V2.2h5.7v8.4H334.7z M334.7,63.4V19.7h5.7v43.7H334.7z"/>
</g>
<g class="st0">
	<path class="st1" d="M364.7,64.2c-4.7,0-8.3-1.6-10.6-4.7c-2.3-3.2-3.5-7.9-3.5-14.1V19.7h5.7v24.6c0,9.9,3.4,14.8,10.1,14.8
		c1.7,0,3.3-0.3,4.9-0.8c1.6-0.6,3.1-1.4,4.5-2.4c1.4-1.1,2.6-2.3,3.7-3.8c1.1-1.5,2-3.1,2.6-4.9V19.7h5.7V56c0,1.6,0.7,2.3,2,2.3v5
		c-0.7,0.1-1.2,0.2-1.6,0.2c-0.4,0-0.7,0-0.9,0c-1.3-0.1-2.4-0.5-3.3-1.4c-0.8-0.9-1.3-2.1-1.3-3.6v-5c-1.9,3.4-4.5,6-7.8,7.9
		C371.8,63.3,368.4,64.2,364.7,64.2z"/>
</g>
<g class="st0">
	<path class="st1" d="M463.9,63.4h-5.7V39c0-5.1-0.8-8.8-2.4-11.2c-1.6-2.4-4-3.6-7.2-3.6c-1.7,0-3.3,0.3-4.7,0.9
		c-1.5,0.6-2.8,1.5-4.1,2.6c-1.3,1.1-2.4,2.4-3.3,4c-1,1.5-1.7,3.2-2.2,5.1v26.6h-5.7V39c0-5.2-0.8-9-2.3-11.3
		c-1.6-2.3-4-3.5-7.2-3.5c-3.3,0-6.2,1.1-8.8,3.4c-2.6,2.3-4.4,5.3-5.5,9v26.7H399V19.7h5.2v9.9c1.8-3.4,4.1-6,7-7.8
		c2.9-1.9,6.1-2.8,9.6-2.8c3.7,0,6.6,1,8.8,3.1c2.2,2.1,3.6,4.8,4.1,8.1c4.1-7.5,9.7-11.2,16.8-11.2c2.5,0,4.5,0.4,6.2,1.3
		c1.7,0.9,3.1,2.2,4.1,3.8c1,1.6,1.8,3.6,2.3,6c0.5,2.3,0.7,4.9,0.7,7.8V63.4z"/>
</g>
<path class="st2" d="M26.5,11.6l-2.4,4.9l0.1,2.9l6,2.7l2.8-0.6l1.7-6.9L32,11.3L26.5,11.6z M20,10l-1.1,1.7l4.4,3.6l2-4.1l-2.4-1.7
	C21.9,9.6,20.9,9.8,20,10z M34.3,21.7l4.7,2.8l1.5-8l-4.7-1.3L34.3,21.7z M24,27.5l-0.2-6.6l-6.1,1.3l0.3,2.4l1.9,2.6L24,27.5z
	 M46.8,24.6l-5.2-7l-1.3,7.6l1.4,0.8L46.8,24.6z M28.1,30.3l-3.6-1.6h-3.8l0.4,6.8l4.1,1.7l5.2-4L28.1,30.3z M41.3,42.5l-1.7-4.7
	l-1.3,0.1l-4.5,0.8l0.7,7.3h0.1l2.5,2L41.3,42.5z M25.2,27.7L28,29l1.4-5.6L25,21.2L25.2,27.7z M33.2,45.9l-0.7-7.3L29,36.1l-3,2.3
	l1.2,7.1L33.2,45.9z M21,37.2l-0.5,6.9l5.4,1.2l-1-6.6L21,37.2z M22.9,16.5L18.6,13l-1,7.6l5.4-1.1L22.9,16.5z M19.1,43.9l0.3-6.7
	l-6.8-0.9l2.8,6.8L19.1,43.9z M49.3,21.4c-1.7-2.6-3.9-5-6.4-6.9l-1,1.5l5.8,7.8L49.3,21.4z M8,35.9l-1.4,6.2l0.8,4.7l6.7-3.8
	l-2.7-6.8L8,35.9z M48.4,32.2l4.8-0.9c-0.3-1.6-0.7-3.2-1.3-4.8l-3.5-1.1V32.2z M51.3,25.1c-0.4-0.9-0.8-1.7-1.3-2.6l-1.1,1.8
	L51.3,25.1z M31.9,33.8l-1.8,1.4l3,2.3l4.3-0.7l-0.8-4.4L31.9,33.8z M40.8,27.3l-7.2-4.4l-2.9,0.6l-1.7,6.1l2.2,2.9l5.9-1.9l3.4-1.8
	L40.8,27.3z M17.2,10.9l0.7,0.2l0.3-0.5L17.2,10.9z M47.8,40.8l-2.7-3.3l-4.3,0.3l1.5,4.2L47.8,40.8z M16,21.5l-4.8-2.9l-0.1,4.9
	l5.1,0.3L16,21.5z M19,28.5l-2.8-3.7l-5-0.1l1,10.3l7.3,0.9L19,28.5z M36.4,49.1l-2.5-1.9l-6.5-0.4v5h5.4L36.4,49.1z M41.6,30.1
	L37.9,32l0.8,4.7l6.3-0.5l1.9-3.1L41.6,30.1z M27.3,52.9h-0.1l-1.5,6.6l7,2.2c0.5-0.1,1-0.3,1.5-0.4l-1.8-8.4L27.3,52.9z M26.1,46.6
	L26.1,46.6L26.1,46.6l-5.8-1.3l0.8,9.1l3.5,4.2l1.5-6.5L26.1,46.6z M33.6,52.6l1.8,8.4c2.4-0.8,4.7-2,6.8-3.4v-4l-4.8-3.7L33.6,52.6
	z M20.3,55.5L14.4,56l0.4,3.4c2.9,1.5,6,2.4,9.1,2.8l0.3-1.8l0,0l0-0.2L20.3,55.5z M25.1,62.3c0.6,0,1.2,0.1,1.8,0.1
	c1.1,0,2.1-0.1,3.2-0.2l-4.7-1.5L25.1,62.3z M53.3,32.5l-5.2,1l-2,3.3l3,3.7l4-0.7c0.2-1.3,0.3-2.7,0.3-4.1
	C53.5,34.6,53.4,33.6,53.3,32.5z M43.4,56.6c0.9-0.7,1.7-1.5,2.5-2.3l-2.5-0.4L43.4,56.6z M49.6,45.9v0.2l1.7,0.1
	c0.7-1.7,1.3-3.4,1.7-5.2l-3.4,0.6L49.6,45.9z M49.2,50.2c0.6-0.9,1.1-1.9,1.6-2.9l-1.2-0.1L49.2,50.2z M42.3,43.2l-4.4,5.5l5,4
	l4,0.6c0.3-0.4,0.7-0.8,1-1.2l0.6-5.2l-0.2-5L42.3,43.2z M18.7,45l-4.2-0.9l-6.7,3.9l5.9,6.9l5.8-0.6L18.7,45z M10.1,18l-1.9-1.1
	c-1.5,1.5-2.8,3.1-3.9,4.9l-0.8,3.9l6.4-2L10.1,18z M11,35l-1-10.2L3.2,27l0.1,7.3L11,35z M17.5,12.3l-2.1-0.5
	c-2.3,1.1-4.5,2.5-6.4,4.2l7.4,4.3L17.5,12.3z M47.2,25.7l-4.7,1.2L42,29.3l5.1,2.7L47.2,25.7z M33.2,10.8L33.2,10.8l2.6,3l0.4,0.1
	l0,0l4.8,1.4l1-1.5c-2.6-1.8-5.6-3.1-8.7-3.8L33.2,10.8z M6.8,35.8l-4-0.3l-2.4,0.4c0,1.7,0.2,3.4,0.5,5.1l4.7,0.3L6.8,35.8z
	 M6.1,47.6l0.2-0.1l-0.8-4.8l-4.3-0.3c0.6,2.4,1.6,4.8,2.9,6.9L6.1,47.6L6.1,47.6z M6.8,48.6l-2.2,1.7c1.7,2.6,3.9,5,6.4,6.8
	l1.9-1.4L6.8,48.6z M2,27.1l-0.3,0.1c-0.8,2.4-1.3,5-1.4,7.5l1.8-0.3L2,27.1z M12.1,57.8c0.4,0.3,0.9,0.6,1.4,0.8l-0.2-1.7
	L12.1,57.8z M25.7,9.1l-1,0.1l1.7,1.2l5.6-0.3l0.1-0.5c-1.3-0.3-2.7-0.4-4-0.5V2.9h10.7V0.5H15v2.4h10.7V9.1z"/>
</svg>
