<?xml version="1.0" encoding="utf-8"?>
<!-- Generator: Adobe Illustrator 22.0.1, SVG Export Plug-In . SVG Version: 6.00 Build 0)  -->
<svg version="1.1" id="レイヤー_1" xmlns="http://www.w3.org/2000/svg" xmlns:xlink="http://www.w3.org/1999/xlink" x="0px"
	 y="0px" viewBox="0 0 300 300" style="enable-background:new 0 0 300 300;" xml:space="preserve">
<style type="text/css">
	.st0{fill:#1EBE8C;}
</style>
<title>phone_iphone</title>
<path class="st0" d="M199.8,225V49.8H87.3V225H199.8z M143.6,274.8c10.5,0,18.8-8.2,18.8-18.8s-8.2-18.8-18.8-18.8
	s-18.8,8.2-18.8,18.8S133,274.8,143.6,274.8z M193.9,12.3c17,0,31.1,14.6,31.1,31.6v212.1c0,17-14.1,31.6-31.1,31.6H93.8
	c-17,0-31.1-14.6-31.1-31.6V43.9c0-17,14.1-31.6,31.1-31.6C93.8,12.3,193.9,12.3,193.9,12.3z"/>
</svg>
