<?xml version="1.0" encoding="utf-8"?>
<!-- Generator: Adobe Illustrator 22.0.1, SVG Export Plug-In . SVG Version: 6.00 Build 0)  -->
<svg version="1.1" id="レイヤー_1" xmlns="http://www.w3.org/2000/svg" xmlns:xlink="http://www.w3.org/1999/xlink" x="0px"
	 y="0px" viewBox="0 0 300 300" style="enable-background:new 0 0 300 300;" xml:space="preserve">
<style type="text/css">
	.st0{fill:#1EBE8C;}
</style>
<title>settings</title>
<path class="st0" d="M150,193.9c24,0,43.9-19.9,43.9-43.9S174,106.1,150,106.1S106.1,126,106.1,150S126,193.9,150,193.9z
	 M243.2,162.3l26.4,20.5c2.3,1.8,2.9,5.3,1.2,8.2l-25.2,43.4c-1.8,2.9-4.7,3.5-7.6,2.3l-31.1-12.3c-6.4,4.7-13.5,9.4-21.1,12.3
	l-4.7,32.8c-0.6,2.9-2.9,5.3-5.9,5.3h-50.4c-2.9,0-5.3-2.3-5.9-5.3l-4.7-32.8c-7.6-2.9-14.6-7-21.1-12.3l-31.1,12.3
	c-2.9,1.2-5.9,0.6-7.6-2.3L29.3,191c-1.8-2.9-1.2-6.4,1.2-8.2l26.4-20.5c-0.6-4.1-0.6-8.2-0.6-12.3s0-8.2,0.6-12.3l-26.4-20.5
	c-2.3-1.8-2.9-5.3-1.2-8.2l25.2-43.4c1.8-2.9,4.7-3.5,7.6-2.3l31.1,12.3c6.4-4.7,13.5-9.4,21.1-12.3l4.7-32.8
	c0.6-2.9,2.9-5.3,5.9-5.3h50.4c2.9,0,5.3,2.3,5.9,5.3l4.7,32.8c7.6,2.9,14.6,7,21.1,12.3l31.1-12.3c2.9-1.2,5.9-0.6,7.6,2.3
	l25.2,43.4c1.8,2.9,1.2,6.4-1.2,8.2l-26.4,20.5c0.6,4.1,0.6,8.2,0.6,12.3S243.8,158.2,243.2,162.3L243.2,162.3z"/>
</svg>
