<!-- Generated by IcoMoon.io -->
<svg version="1.1" xmlns="http://www.w3.org/2000/svg" width="279" height="300" viewBox="0 0 279 300">
<title>slack</title>
<path d="M254.297 129.911c13.728 0 24.275 10.045 24.275 23.772 0 10.714-5.525 18.248-15.569 21.763l-28.795 9.877 9.375 27.958c0.837 2.511 1.172 5.19 1.172 7.868 0 13.225-10.714 24.275-23.94 24.275-10.547 0-19.922-6.529-23.27-16.574l-9.208-27.623-51.897 17.745 9.208 27.455c0.837 2.511 1.339 5.19 1.339 7.868 0 13.058-10.714 24.275-24.107 24.275-10.547 0-19.755-6.529-23.103-16.574l-9.208-27.288-25.614 8.873c-2.679 0.837-5.525 1.507-8.37 1.507-13.56 0-23.772-10.045-23.772-23.605 0-10.38 6.696-19.755 16.574-23.103l26.116-8.873-17.578-52.4-26.116 9.040c-2.679 0.837-5.357 1.339-8.036 1.339-13.393 0-23.772-10.212-23.772-23.605 0-10.38 6.696-19.755 16.574-23.103l26.283-8.873-8.873-26.618c-0.837-2.511-1.339-5.19-1.339-7.868 0-13.225 10.714-24.275 24.107-24.275 10.547 0 19.755 6.529 23.103 16.574l9.040 26.786 51.897-17.578-9.040-26.786c-0.837-2.511-1.339-5.19-1.339-7.868 0-13.225 10.882-24.275 24.107-24.275 10.547 0 19.922 6.696 23.27 16.574l8.873 26.953 27.12-9.208c2.344-0.67 4.688-1.005 7.199-1.005 13.058 0 24.275 9.71 24.275 23.103 0 10.38-8.036 19.085-17.411 22.266l-26.283 9.040 17.578 52.902 27.455-9.375c2.511-0.837 5.19-1.339 7.701-1.339zM121.373 173.772l51.897-17.578-17.578-52.734-51.897 17.913z"></path>
</svg>
