<?xml version="1.0" encoding="utf-8"?>
<!-- Generator: Adobe Illustrator 22.0.1, SVG Export Plug-In . SVG Version: 6.00 Build 0)  -->
<svg version="1.1" id="レイヤー_1" xmlns="http://www.w3.org/2000/svg" xmlns:xlink="http://www.w3.org/1999/xlink" x="0px"
	 y="0px" viewBox="0 0 300 300" style="enable-background:new 0 0 300 300;" xml:space="preserve">
<style type="text/css">
	.st0{fill:#1EBE8C;}
</style>
<title>slideshare</title>
<path class="st0" d="M146.6,127.6c0,16-13.9,29.1-31.1,29.1s-31.1-13.1-31.1-29.1c0-16.2,13.9-29.1,31.1-29.1
	S146.6,111.4,146.6,127.6z M219,127.6c0,16-13.8,29.1-31.1,29.1c-17.1,0-31.1-13.1-31.1-29.1c0-16.2,13.9-29.1,31.1-29.1
	C205.1,98.5,219,111.4,219,127.6z M251.4,153.5v-96c0-16.6-5.3-23.1-20.6-23.1H70.7c-16,0-20.5,5.4-20.5,23.1v96.8
	c34.1,17.9,63.4,14.7,79.3,14.1c6.8-0.2,11.1,1.1,13.7,3.9c0.4,0.4,0.9,0.9,1.5,1.3c3,2.8,5.9,5.2,8.8,7.3c0.6-7.9,5.1-13,17-12.6
	C186.7,169.2,216.6,172.3,251.4,153.5L251.4,153.5z M274.8,152.8c-9.2,11.4-26.7,25.4-53.6,36.3c28.4,96.6-69.2,112-67.7,62.5
	c0,0.9-0.2-26.7-0.2-47c-2.2-0.4-4.3-1-6.9-1.5c0,20.6-0.2,49.5-0.2,48.7c1.5,49.5-96.1,34.1-67.7-62.5
	c-26.7-10.9-44.4-24.9-53.6-36.3c-4.6-6.9,0.4-14.3,8.1-8.9c1,0.7,2.2,1.5,3.2,2.2V46c0.1-13.8,10.5-25,23.3-25h181
	c12.8,0,23.2,11.3,23.2,25V146l3-2.2C274.4,138.5,279.4,145.8,274.8,152.8L274.8,152.8z"/>
</svg>
