<svg id="レイヤー_1" data-name="レイヤー 1" xmlns="http://www.w3.org/2000/svg" viewBox="0 0 279 279"><defs><style>.cls-1{fill:#70aecd;}.cls-2{fill:#fff;}</style></defs><title>twitter</title><circle class="cls-1" cx="139.5" cy="139.5" r="128.57"/><path class="cls-2" d="M216.24,101.43a67.16,67.16,0,0,1-15.7,16.17c.1,1.36.1,2.72.1,4.07,0,41.37-31.48,89-89,89a88.37,88.37,0,0,1-48-14,64.85,64.85,0,0,0,7.56.39A62.67,62.67,0,0,0,110,183.67,31.34,31.34,0,0,1,80.71,162a39.49,39.49,0,0,0,5.91.49,32.92,32.92,0,0,0,8.23-1.07,31.3,31.3,0,0,1-25.09-30.71v-.39a31.56,31.56,0,0,0,14.15,4,31.34,31.34,0,0,1-9.69-41.85,89,89,0,0,0,64.52,32.74A35,35,0,0,1,138,118a31.33,31.33,0,0,1,54.16-21.41A61.83,61.83,0,0,0,212,89a31.26,31.26,0,0,1-13.76,17.24,62.84,62.84,0,0,0,18-4.84Z"/></svg>