<svg xmlns="http://www.w3.org/2000/svg" width="171" height="300" viewBox="0 0 171 300"><path d="M48.214 246.429c0-8.873-7.199-16.071-16.071-16.071s-16.071 7.199-16.071 16.071S23.271 262.5 32.143 262.5s16.071-7.199 16.071-16.071zm0-192.858c0-8.873-7.199-16.071-16.071-16.071s-16.071 7.199-16.071 16.071 7.199 16.071 16.071 16.071 16.071-7.199 16.071-16.071zM155.357 75c0-8.873-7.199-16.071-16.071-16.071S123.215 66.128 123.215 75s7.199 16.071 16.071 16.071S155.357 83.872 155.357 75zm16.072 0c0 11.886-6.529 22.266-16.071 27.79-.502 60.435-43.359 73.828-71.819 82.868-26.618 8.37-35.324 12.388-35.324 28.627v4.353c9.542 5.525 16.071 15.904 16.071 27.79 0 17.745-14.397 32.143-32.143 32.143S0 264.174 0 246.428c0-11.886 6.529-22.266 16.071-27.79V81.361C6.529 75.836 0 65.457 0 53.571c0-17.745 14.397-32.143 32.143-32.143s32.143 14.397 32.143 32.143c0 11.886-6.529 22.266-16.071 27.79v83.203c8.538-4.185 17.578-7.031 25.781-9.542 31.138-9.877 48.884-17.243 49.219-52.232-9.542-5.525-16.071-15.904-16.071-27.79 0-17.745 14.397-32.143 32.143-32.143S171.43 57.254 171.43 75z"/></svg>