<svg xmlns="http://www.w3.org/2000/svg" viewBox="0 0 257 300"><path d="M245.8 79.7c1.7 1.7 3.2 3.7 4.7 6h-79v-79c2.3 1.5 4.4 3 6 4.7l68.3 68.3zm-79.7 27.4h91.1v176.8c0 8.9-7.2 16.1-16.1 16.1h-225C7.2 300 0 292.8 0 283.9V16.1C0 7.2 7.2 0 16.1 0H150v91.1c0 8.8 7.2 16 16.1 16zm26.8 123.3v-10.7c0-3-2.3-5.4-5.4-5.4H69.6c-3 0-5.4 2.3-5.4 5.4v10.7c0 3 2.3 5.4 5.4 5.4h117.9c3-.1 5.4-2.4 5.4-5.4zm0-42.9v-10.7c0-3-2.3-5.4-5.4-5.4H69.6c-3 0-5.4 2.3-5.4 5.4v10.7c0 3 2.3 5.4 5.4 5.4h117.9c3 0 5.4-2.4 5.4-5.4zm0-42.9v-10.7c0-3-2.3-5.4-5.4-5.4H69.6c-3 0-5.4 2.3-5.4 5.4v10.7c0 3 2.3 5.4 5.4 5.4h117.9c3 0 5.4-2.3 5.4-5.4z" fill="#1ebe8c"/></svg>