<svg xmlns="http://www.w3.org/2000/svg" viewBox="0 0 200 200"><path d="M164.2 52.7c3.4 3.4 6.2 10.2 6.2 15v105.6c0 4.8-3.9 8.8-8.8 8.8H38.4c-4.8-.1-8.8-4-8.8-8.9V26.6c0-4.8 3.9-8.8 8.8-8.8h82.1c4.8 0 11.7 2.9 15 6.2l28.7 28.7zm-40.8-22.4v34.4h34.4c-.6-1.6-1.4-3.1-2.1-3.8L127 32.2c-.5-.5-1.9-1.3-3.6-1.9zm35.3 140.1V76.5h-38.1c-4.8 0-8.8-3.9-8.8-8.8V29.6H41.3v140.7l117.4.1zM64.8 91.1c0-1.6 1.2-3 3-3h64.6c1.6 0 3 1.2 3 3V97c0 1.6-1.2 3-3 3H67.7c-1.6 0-3-1.2-3-3 .1 0 .1-5.9.1-5.9zm67.5 20.6c1.6 0 3 1.2 3 3v5.8c0 1.6-1.2 3-3 3H67.7c-1.6 0-3-1.2-3-3v-5.8c0-1.6 1.2-3 3-3h64.6zm0 23.5c1.6 0 3 1.2 3 3v5.8c0 1.6-1.2 3-3 3H67.7c-1.6 0-3-1.2-3-3v-5.8c0-1.6 1.2-3 3-3h64.6z" fill="#1ebe8c"/></svg>