<svg data-name="レイヤー 1" xmlns="http://www.w3.org/2000/svg" viewBox="0 0 62.03 62.03"><path d="M30.37 11.15L28 16l.11 2.86 6.05 2.71 2.77-.57 1.66-6.93-2.78-3.17zm-6.48-1.56l-1.12 1.72 4.4 3.57 2-4.12L26.68 9a28.14 28.14 0 00-2.79.59zm14.23 11.65L42.87 24l1.49-8-4.66-1.33zM27.83 27l-.21-6.59-6.07 1.35.26 2.37 1.9 2.61zm22.81-2.91l-5.23-7-1.32 7.57 1.42.83zM31.91 29.9l-3.6-1.66H24.5l.32 6.8L29 36.76l5.17-4zm13.21 12.18l-1.71-4.66-1.32.09-4.53.77.72 7.33h.08l2.45 1.89zM29 27.25l2.79 1.28L33.26 23l-4.42-2.14zm8 18.2l-.72-7.33-3.42-2.42-3 2.28L31 45zm-12.14-8.63l-.49 6.9 5.38 1.15-1-6.57zm1.88-20.73l-4.31-3.49-1 7.57L26.89 19zM23 43.48l.34-6.71-6.75-.92 2.75 6.8zm30.13-22.55a26.63 26.63 0 00-6.38-6.88l-1 1.48 5.82 7.84zM11.82 35.49l-1.37 6.17.77 4.73 6.72-3.86-2.74-6.78zm40.39-3.71l4.79-.92a26.66 26.66 0 00-1.26-4.74L52.24 25zm2.93-7.13c-.39-.88-.83-1.73-1.3-2.56l-1.12 1.77zM35.77 33.4L34 34.79l3 2.35 4.31-.73-.75-4.41zm8.89-6.56l-7.2-4.39-2.89.65-1.65 6.07L35.14 32l5.92-1.85 3.42-1.82zM21.09 10.5l.66.16.34-.52c-.34.11-.67.23-1 .36zm30.58 29.83L49 37l-4.29.3 1.52 4.16zM19.89 21.07l-4.78-2.86-.11 4.87 5.09.31zm3 7l-2.8-3.67-5.09-.09 1 10.29 7.3.91zm17.36 20.57l-2.49-1.92-6.55-.45v5h5.37zm5.16-19l-3.67 1.87.81 4.73 6.33-.44 1.87-3.07zm-14.25 22.8H31L29.5 59l7 2.25 1.5-.39-1.79-8.41zM30 46.19v-.06l-5.81-1.22.73 9.09 3.52 4.23L30 51.76zm7.42 5.94l1.79 8.39A26.49 26.49 0 0046 57.08v-4l-4.8-3.7zM24.1 55.05l-5.88.51.37 3.4a26.27 26.27 0 009.14 2.77l.35-1.84v-.19zm4.9 6.77c.6 0 1.19.09 1.79.09a27.84 27.84 0 003.18-.2l-4.67-1.49zm28.2-29.76l-5.17 1-2 3.29 3 3.71 4-.69a26.12 26.12 0 00.34-4.08 26.55 26.55 0 00-.22-3.23zm-9.93 24.08a26.73 26.73 0 002.5-2.25l-2.47-.37zm6.21-10.65v.17l1.7.13a27.07 27.07 0 001.62-5.15l-3.44.59zm-.39 4.24a25.94 25.94 0 001.6-2.87l-1.17-.09zm-7-7l-4.37 5.54 5 4 4 .58c.35-.4.69-.81 1-1.22l.62-5.22-.17-4.95zM22.55 44.6l-4.18-.92-6.67 3.84 5.9 6.87 5.75-.56zm-8.64-27.07L12 16.42a26.85 26.85 0 00-3.88 4.93l-.75 3.86 6.43-2zm.93 17l-1-10.09-6.78 2.13.08 7.34zm6.47-22.7l-2-.51a26.74 26.74 0 00-6.39 4.3l7.36 4.34zM51 25.28l-4.7 1.24-.41 2.32L51 31.5zM37 10.36h-.05l2.62 3 .4.09 4.8 1.36 1-1.52a26.46 26.46 0 00-8.64-3.86zm-26.42 25l-4-.31-2.44.42a26.25 26.25 0 00.53 5.13l4.7.35zm-.65 11.77l.16-.09-.78-4.84L5 41.87a26.44 26.44 0 002.83 6.93L10 47.19zm.74 1l-2.2 1.67a26.72 26.72 0 006.41 6.79l1.87-1.38zM5.85 26.66l-.29.06a26.49 26.49 0 00-1.39 7.54L5.93 34zM15.9 57.4c.45.3.92.56 1.39.84l-.19-1.73zM29.53 8.71l-1 .07 1.67 1.16 5.72-.25.06-.5a26.21 26.21 0 00-4-.49V2.46h10.63V0H18.87v2.46h10.66z" fill="#1ebe8c"/></svg>