<svg id="レイヤー_1" data-name="レイヤー 1" xmlns="http://www.w3.org/2000/svg" viewBox="0 0 64.65 64.65"><defs><clipPath id="clip-path"><circle class="cls-1" cx="32.32" cy="34.79" r="21.37"/></clipPath><style>.cls-1{fill:none}.cls-4{fill:#fff}</style></defs><rect width="64.65" height="64.65" rx="14.16" ry="14.16" fill="#1ebe8c"/><path class="cls-1" d="M27.05 35.08l3.92 1.57 4.98-3.86 4.75-1.5 3.14-1.62.36-1.97-6.46-3.8-2.86.53-4.89-2.22-5.71 1.22.19 2.57 2.18 2.78.39 6.56-.36 6.2-.33.92.76 8.19"/><g clip-path="url(#clip-path)"><path class="cls-4" d="M15.68 12.76c.93-1.42 2.21-3.41 2.85-4.45-.76 0-2.07-.13-4.38-.36l-4.29-.43 1.23 5.13zm3.89-4.29c-.07.13-.17.29-.29.47-.28.46-.68 1.06-1.18 1.88L16.73 13l8.38 2 1.76-2.72c-1.08-.6-4.73-2.49-7.3-3.81zm9.54 10.91l-3.46-2.81-.83 6.09 4.42-.94-.13-2.34zm-12.82-5.54l-.95 3.59 8.55 5.04.86-6.53-8.46-2.1zM8 13.14c.37.8 1.24 2.41 2.08 3.92l4.34.11.91-3.44-4.75-.11zm11-8.82l.8 3.16c1.83.94 5.23 2.69 7 3.64l-1.41-4-1.22-2.29zm4.61 19.06l-3.83-2.3-.1 3.91 4.08.24-.15-1.85zm7.35 4.95l2.24 1.03 1.15-4.48-3.55-1.71.16 5.16zm-15.81-9.88l-1.61 8.24 5.16-1.63.12-4.53-3.67-2.08zm-5.12-.41l-2.15 3.41 5.58 1.84.75-5.15-4.18-.1zM26.4 34.97l-.37-5.96-2.26-2.95-4.04-.09.82 8.26 5.85.74zm-6.84-.81l-.8-8.1-5.44 1.73.06 5.89 6.18.48zm-7.09-7.31l.83-2.59-5.8-1.91-.03 5.46 5-.96zm17.35-3.98l-4.87 1.08.2 1.91 1.53 2.09 3.3.21-.16-5.29zM12.41 33.72l-.06-5.86-5.06.98-1.61 2.64 2.44 2.97 4.29-.73zM7.72 45.21l2.21 3.45 5.72-4.32-.03-.05.13-.07-.62-3.89-6.64-.49-.77 5.37zm45.59-1.01l-2.7-.2-.78 5.37 2.21 3.45.45-.34.82-8.28zM8.49 38.86l6.67.5 1-4.49-3.24-.25-4.5.77.07 3.47zm8.17 4.84l5.39-3.1-2.2-5.44-2.71-.21-1.1 4.95.62 3.8zm15.06-.16l-.02-.01v-.04l-4.67-.98.62 7.3 2.82 3.39 1.22-5.2.03-4.46zM35.4 25l-1.33 4.88 1.79 2.29 4.75-1.48 2.74-1.46.14-1.22-5.77-3.53-2.32.52zm13.18 6.75l.02-5-3.79 1-.33 1.86 4.1 2.14zm-16.99 5.2l.96 5.67 4.83.32-.58-5.88-2.78-1.94-2.43 1.83zM3.93 66.41c3.06.33 7.4.76 8.89.82l-1.28-5.11L11 62l-5.8-.26zm34.02-9.44l-6.82-2.17-.84 4.53.12.05 3.77 1.54 3.77-3.95zm-32.3-1.01L10.8 54l-1.19-4.14-5.98 1.69 2.02 4.41zm27.61-25.5l-2.88-1.33-3.07.02.26 5.46 3.32 1.36 4.14-3.2-1.77-2.31zm9.23 6.04l-1.06.07-3.63.62.57 5.88.07.03 1.97 1.52 3.45-4.38-1.37-3.74zm-2.53 9l-2-1.54-5.26-.36-.03 3.98 4.31.02 2.98-2.1zM29.37 59.99l-6.86-3.03-4.33 5.47 1.66 3.23 4-.07 5.53-5.6zm-7.59-9.87l4.61-.46-.64-7.4-3.35-.74-5.36 3.08 4.74 5.52zm-.85-14.88l2.21 5.46 2.94.66.27-5.39-5.42-.73zM6.66 45.73l-3.16-.48-.05 5.34L9 49.02l-2.08-3.25-.26-.04zm42.11 4.16l-3.15-.47-.06 5.33 5.55-1.57-2.08-3.25-.26-.04zm-17.24-7.41l-.78-5.28-3.14-1.19-.4 5.54 4.32.93zM11.78 53.85l4.54.5 4.77-3.54-4.87-5.67-5.72 4.31 1.28 4.4zm5.63 9.21l-4.82-.77 1.27 5.07c1.84.94 5.23 2.68 7 3.63l-1.41-4zm3.97-11.25l-4.4 3.27.86 6.21 4.01-5.08-.47-4.4zm8.8 2.72h-.02l.04-.16-3.21-3.72-4.72.4.54 4.98 6.56 2.89.81-4.39zm-19.22.46l-8.87 3.37 2.93 2.4 6.36.29-.42-6.06zm5.06.31l-4.1-.45.45 6.41 4.58.74-.93-6.7zm16.64-6.75h-.1l-1.23 5.29 7 2.23-1.59-7.49-4.08-.03zm19.51 7.14l-.48-1.67-5.97 1.69 2.01 4.41 4.16-1.58.28-2.85zM37.34 66.61l2.37 3.45 5.31.42 1.35-4.91-3.22-2.63-5.81 3.67zm.51-55.63l-.49 3.8-.03.03 2.09 2.38.33.08-.01.02 3.85 1.09 1.59-2.44-.28-4.83h-.01l.01-.01-.02-.28-2.41-3.53-4.62 3.69zm16.59 21.79l-.01-.75-5.06.98-1.61 2.64 2.44 2.98 3.72-.64.52-5.21zm-8.3-17.11l6 1-1.22-5.08-5.04-.39.26 4.47z"/><path class="cls-4" d="M53.3 44.29l-2.54-.19 1.34 8.65.39-.29.81-8.17zm2.18-22.01l-3.36-.08-2.15 3.41 5.01 1.65.5-4.98zm-6.42 2.94l2.23-3.53a47 47 0 01-2.36-4.58l-3-.5-1.53 2.32zm7.42-13.08h-.25l-4.29-.43 1.23 5.13 2.84.07zm-.57 5.71l-3.26-.07-2.59-.44c.38.8 1.24 2.41 2.08 3.92l3.43.09zm-7.53 14.9l-4.28-2.48-2.95 1.5.65 3.8 5.08-.36 1.5-2.46zm-4.87 3.68l1.22 3.33 4.39-.93-2.17-2.65-3.44.25zm-7.15-3.16l-1.41 1.12 2.43 1.88 3.45-.59-.62-3.56-3.85 1.15zm13.17 6.47l-4.84 1.03-3.51 4.44 4.01 3.2 3.86.57.62-5.26-.14-3.98zm4.3-.76l-3.33.57.08 3.42.02.14 2.8.21.43-4.34zM36.39 15.22l-4.37.19-1.93 3.92.08 2.29 4.86 2.18 2.26-.48 1.34-5.56-2.24-2.54zm-10.46.32l3.53 2.86 1.63-3.3-3.36-2.33-1.8 2.77zm13.59 2.7l-1.27 5.27 3.81 2.22 1.19-6.43-3.73-1.06zm-2.65-7.26l-6.99-4.29-3.63.06L28 11.76l.27.18-.01.01 3.6 2.49 4.59-.2.42-3.26zm17.77 19.76l.25-2.48-5.31-1.75-.02 5.46 4.99-.96.09-.27zM44.1 20.17l-1.06 6.07 1.13.67 4.13-1.09-4.2-5.65zm.52 28.93l-3.85-2.97-3.1 2.18 1.66 7.74 5.22-1.06.07-5.89zm7.16 10.52l-7.6 2.9 2.93 2.4 4.13.19.54-5.49zm-11.97-2.67l3.71 4.78 3.3-1.26-2.06-4.52-4.95 1zm-5.61 5.03l-3.87-1.58-5.49 5.57 6.6 4.04 4.62-3.7-1.86-4.33zm4.71-4.61l-3.88 4.07 1.85 4.31 5.72-3.62-3.69-4.76z"/></g><path d="M22.8 7.46h19.05m-9.53 6.2v-6.2" stroke="#fff" stroke-linejoin="round" stroke-width="1.94" fill="none"/></svg>