<svg version="1.1" id="レイヤー_1" xmlns="http://www.w3.org/2000/svg" x="0" y="0" viewBox="0 0 463.9 64.2" xml:space="preserve"><style>.st0{enable-background:new}.st1{fill:#fff}</style><g class="st0"><path class="st1" d="M77.2 63.4V3.9h24.6c2.6 0 4.9.5 7.1 1.6 2.2 1.1 4 2.5 5.6 4.3 1.6 1.8 2.8 3.8 3.7 6 .9 2.2 1.3 4.5 1.3 6.8 0 2.5-.4 4.8-1.3 7.1-.8 2.3-2 4.3-3.5 6-1.5 1.7-3.3 3.1-5.4 4.2-2.1 1.1-4.4 1.6-7 1.6H83.1v22h-5.9zm5.9-27.2h19c1.7 0 3.3-.4 4.7-1.1 1.4-.8 2.6-1.8 3.6-3 1-1.3 1.8-2.7 2.3-4.4.6-1.6.8-3.4.8-5.2 0-1.8-.3-3.6-1-5.2-.6-1.6-1.5-3.1-2.6-4.3-1.1-1.2-2.4-2.2-3.9-2.9-1.5-.7-3-1-4.7-1H83.1v27.1z"/></g><g class="st0"><path class="st1" d="M144.3 64.2c-3.2 0-6.1-.6-8.8-1.8-2.7-1.2-5-2.8-6.9-4.9-2-2.1-3.5-4.5-4.6-7.2s-1.6-5.7-1.6-8.8c0-3.1.5-6 1.6-8.7 1.1-2.7 2.6-5.1 4.5-7.1s4.2-3.7 6.9-4.9c2.7-1.2 5.6-1.8 8.7-1.8 3.2 0 6.1.6 8.8 1.8 2.7 1.2 4.9 2.8 6.8 4.9 1.9 2.1 3.4 4.4 4.4 7.1 1.1 2.7 1.6 5.5 1.6 8.5v1.3c0 .4 0 .8-.1.9h-37.4c.2 2.3.7 4.5 1.6 6.5.9 2 2.1 3.7 3.6 5.2s3.1 2.6 5 3.4c1.9.8 3.9 1.2 6 1.2 1.4 0 2.8-.2 4.2-.6 1.4-.4 2.7-.9 3.9-1.6 1.2-.7 2.2-1.5 3.2-2.5.9-1 1.7-2.1 2.2-3.2l4.9 1.3c-.7 1.6-1.6 3.1-2.8 4.4-1.2 1.3-2.7 2.5-4.3 3.4-1.6 1-3.4 1.7-5.4 2.3-1.8.7-3.9.9-6 .9zm16.1-25c-.2-2.3-.7-4.5-1.6-6.4-.9-1.9-2.1-3.6-3.5-5s-3.1-2.5-4.9-3.3c-1.9-.8-3.9-1.2-6-1.2s-4.1.4-6 1.2c-1.9.8-3.6 1.9-5 3.3s-2.6 3.1-3.4 5c-.9 2-1.4 4.1-1.6 6.4h32z"/></g><g class="st0"><path class="st1" d="M194.9 24.7c-3.9.1-7.2 1.2-10.1 3.2-2.8 2-4.9 4.8-6 8.3v27.2h-5.7V19.7h5.4v10.5c1.6-3.4 3.8-6 6.5-7.9 2.7-1.9 5.7-2.8 8.8-2.8.4 0 .8 0 1.1.1v5.1z"/></g><g class="st0"><path class="st1" d="M215 64.2c-3.4 0-6.7-.6-10-1.7-3.2-1.1-6-2.7-8.4-4.9l2.6-3.9c2.5 2 5 3.5 7.5 4.5s5.3 1.5 8.2 1.5c3.5 0 6.3-.7 8.4-2.1 2.1-1.4 3.1-3.4 3.1-6.1 0-1.2-.3-2.2-.8-3.1-.6-.8-1.4-1.5-2.5-2.1-1.1-.6-2.5-1.2-4.1-1.6-1.6-.5-3.6-1-5.7-1.5-2.5-.6-4.7-1.2-6.5-1.8-1.8-.6-3.4-1.3-4.6-2.1-1.2-.8-2.1-1.7-2.7-2.9-.6-1.1-.9-2.6-.9-4.3 0-2.2.4-4.1 1.3-5.8.9-1.7 2-3.1 3.5-4.1 1.5-1.1 3.2-1.9 5.2-2.5 2-.6 4.1-.8 6.3-.8 3.4 0 6.4.5 9.1 1.6 2.7 1.1 4.9 2.5 6.6 4.3l-2.8 3.4c-1.6-1.7-3.6-2.9-5.9-3.8-2.3-.8-4.7-1.3-7.2-1.3-1.5 0-2.9.2-4.2.5-1.3.3-2.4.8-3.4 1.5s-1.7 1.5-2.3 2.6c-.6 1-.8 2.3-.8 3.6 0 1.2.2 2.1.6 2.8.4.7 1 1.4 1.9 1.9.9.5 2 1 3.4 1.4 1.4.4 3 .9 5 1.3 2.8.7 5.3 1.3 7.4 2 2.1.7 3.9 1.5 5.3 2.3 1.4.9 2.5 2 3.2 3.3.7 1.3 1.1 2.8 1.1 4.7 0 4-1.5 7.2-4.6 9.6-3 2.4-7.2 3.6-12.3 3.6z"/></g><g class="st0"><path class="st1" d="M258 64.2c-3.2 0-6.1-.6-8.7-1.8-2.6-1.2-4.9-2.8-6.8-4.9-1.9-2.1-3.4-4.5-4.5-7.2s-1.6-5.6-1.6-8.6c0-3.1.5-6 1.6-8.7 1.1-2.7 2.6-5.1 4.5-7.2 1.9-2.1 4.2-3.7 6.8-4.9 2.6-1.2 5.5-1.8 8.6-1.8 3.1 0 6 .6 8.7 1.8 2.7 1.2 4.9 2.9 6.9 4.9 1.9 2.1 3.4 4.5 4.5 7.2s1.6 5.6 1.6 8.7c0 3-.5 5.9-1.6 8.6-1.1 2.7-2.6 5.1-4.5 7.2-1.9 2.1-4.2 3.7-6.9 4.9-2.4 1.2-5.4 1.8-8.6 1.8zm-15.8-22.4c0 2.5.4 4.7 1.3 6.8.8 2.1 2 3.9 3.4 5.5s3.1 2.8 5 3.7c1.9.9 4 1.3 6.2 1.3s4.2-.5 6.2-1.4c1.9-.9 3.6-2.2 5.1-3.8 1.5-1.6 2.6-3.4 3.4-5.6s1.3-4.4 1.3-6.9c0-2.4-.4-4.7-1.3-6.8-.8-2.1-2-4-3.4-5.6-1.5-1.6-3.1-2.8-5.1-3.8-1.9-.9-4-1.4-6.2-1.4s-4.2.5-6.1 1.4-3.6 2.2-5 3.8c-1.5 1.6-2.6 3.5-3.4 5.7-1 2.3-1.4 4.6-1.4 7.1z"/></g><g class="st0"><path class="st1" d="M324.2 63.4h-5.7V39c0-5.2-.8-9-2.3-11.3-1.5-2.3-3.9-3.5-7.1-3.5-1.7 0-3.4.3-5 .9-1.7.6-3.2 1.5-4.7 2.6-1.4 1.1-2.7 2.4-3.8 4-1.1 1.5-1.9 3.2-2.4 5v26.7h-5.7V19.7h5.2v9.9c1.8-3.2 4.3-5.8 7.7-7.7 3.3-2 6.9-2.9 10.9-2.9 2.4 0 4.4.4 6.1 1.3 1.7.9 3 2.2 4 3.8s1.7 3.6 2.2 5.9.7 4.9.7 7.8v25.6zm10.5-52.8V2.2h5.7v8.4h-5.7zm0 52.8V19.7h5.7v43.7h-5.7z"/></g><g class="st0"><path class="st1" d="M364.7 64.2c-4.7 0-8.3-1.6-10.6-4.7-2.3-3.2-3.5-7.9-3.5-14.1V19.7h5.7v24.6c0 9.9 3.4 14.8 10.1 14.8 1.7 0 3.3-.3 4.9-.8 1.6-.6 3.1-1.4 4.5-2.4 1.4-1.1 2.6-2.3 3.7-3.8s2-3.1 2.6-4.9V19.7h5.7V56c0 1.6.7 2.3 2 2.3v5c-.7.1-1.2.2-1.6.2h-.9c-1.3-.1-2.4-.5-3.3-1.4-.8-.9-1.3-2.1-1.3-3.6v-5c-1.9 3.4-4.5 6-7.8 7.9-3.1 1.9-6.5 2.8-10.2 2.8z"/></g><g class="st0"><path class="st1" d="M463.9 63.4h-5.7V39c0-5.1-.8-8.8-2.4-11.2-1.6-2.4-4-3.6-7.2-3.6-1.7 0-3.3.3-4.7.9-1.5.6-2.8 1.5-4.1 2.6-1.3 1.1-2.4 2.4-3.3 4-1 1.5-1.7 3.2-2.2 5.1v26.6h-5.7V39c0-5.2-.8-9-2.3-11.3-1.6-2.3-4-3.5-7.2-3.5-3.3 0-6.2 1.1-8.8 3.4-2.6 2.3-4.4 5.3-5.5 9v26.7H399V19.7h5.2v9.9c1.8-3.4 4.1-6 7-7.8 2.9-1.9 6.1-2.8 9.6-2.8 3.7 0 6.6 1 8.8 3.1 2.2 2.1 3.6 4.8 4.1 8.1 4.1-7.5 9.7-11.2 16.8-11.2 2.5 0 4.5.4 6.2 1.3 1.7.9 3.1 2.2 4.1 3.8 1 1.6 1.8 3.6 2.3 6 .5 2.3.7 4.9.7 7.8v25.5z"/></g><path class="st1" d="M26.5 11.6l-2.4 4.9.1 2.9 6 2.7 2.8-.6 1.7-6.9-2.7-3.3-5.5.3zM20 10l-1.1 1.7 4.4 3.6 2-4.1-2.4-1.7c-1 .1-2 .3-2.9.5zm5.2 17.7L28 29l1.4-5.6-4.4-2.2.2 6.5zm-1.2-.2l-.2-6.6-6.1 1.3.3 2.4 1.9 2.6 4.1.3zm22.8-2.9l-5.2-7-1.3 7.6 1.4.8 5.1-1.4zm-12.5-2.9l4.7 2.8 1.5-8-4.7-1.3-1.5 6.5zm2.1 27.4l-2.5-1.9-6.5-.4v5h5.4l3.6-2.7zm4.9-6.6l-1.7-4.7-1.3.1-4.5.8.7 7.3h.1l2.5 2 4.2-5.5zM21 37.2l-.5 6.9 5.4 1.2-1-6.6-3.9-1.5zm12.2 8.7l-.7-7.3-3.5-2.5-3 2.3 1.2 7.1 6 .4zm-5.1-15.6l-3.6-1.6h-3.8l.4 6.8 4.1 1.7 5.2-4-2.3-2.9zm12.7-3l-7.2-4.4-2.9.6-1.7 6.1 2.2 2.9 5.9-1.9 3.4-1.8.3-1.5zM8 35.9l-1.4 6.2.8 4.7 6.7-3.8-2.7-6.8-3.4-.3zm11.1 8l.3-6.7-6.8-.9 2.8 6.8 3.7.8zm30.2-22.5c-1.7-2.6-3.9-5-6.4-6.9l-1 1.5 5.8 7.8 1.6-2.4zm2 3.7c-.4-.9-.8-1.7-1.3-2.6l-1.1 1.8 2.4.8zm-3 7.1l4.8-.9c-.3-1.6-.7-3.2-1.3-4.8l-3.5-1.1v6.8zM19 28.5l-2.8-3.7-5-.1 1 10.3 7.3.9-.5-7.4zm12.9 5.3l-1.8 1.4 3 2.3 4.3-.7-.8-4.4-4.7 1.4zM17.2 10.9l.7.2.3-.5-1 .3zm30.6 29.9l-2.7-3.3-4.3.3 1.5 4.2 5.5-1.2zM22.9 16.5L18.6 13l-1 7.6 5.4-1.1-.1-3zm-6.9 5l-4.8-2.9-.1 4.9 5.1.3-.2-2.3zm31.2 4.2l-4.7 1.2-.5 2.4 5.1 2.7.1-6.3zM25.1 62.3c.6 0 1.2.1 1.8.1 1.1 0 2.1-.1 3.2-.2l-4.7-1.5-.3 1.6zm2.2-9.4h-.1l-1.5 6.6 7 2.2c.5-.1 1-.3 1.5-.4l-1.8-8.4h-5.1zm6.3-.3l1.8 8.4c2.4-.8 4.7-2 6.8-3.4v-4l-4.8-3.7-3.8 2.7zm-13.3 2.9l-5.9.5.4 3.4c2.9 1.5 6 2.4 9.1 2.8l.3-1.8v-.2l-3.9-4.7zm5.8-8.9l-5.8-1.3.8 9.1 3.5 4.2 1.5-6.5v-5.5zm27.2-14.1l-5.2 1-2 3.3 3 3.7 4-.7c.2-1.3.3-2.7.3-4.1.1-1.1 0-2.1-.1-3.2zm-3.7 13.4v.2l1.7.1c.7-1.7 1.3-3.4 1.7-5.1l-3.4.6v4.2zm-6.2 10.7c.9-.7 1.7-1.5 2.5-2.3l-2.5-.4v2.7zM18.7 45l-4.2-.9L7.8 48l5.9 6.9 5.8-.6-.8-9.3zm30.5 5.1c.6-.9 1.1-1.9 1.6-2.9l-1.2-.1-.4 3zm-6.9-7l-4.4 5.6 5 4 4 .6c.3-.4.7-.8 1-1.2l.6-5.2-.2-5-6 1.2zM12.1 57.8c.4.3.9.6 1.4.8l-.2-1.7-1.2.9zm29.5-27.7L37.9 32l.8 4.7 6.3-.5 1.9-3.1-5.3-3zM17.5 12.2l-2.1-.5c-2.3 1.1-4.5 2.6-6.4 4.3l7.4 4.3 1.1-8.1zm15.7-1.4l2.6 3 .4.1 4.8 1.4 1-1.5c-2.6-1.8-5.6-3.1-8.7-3.8l-.1.8zM11 34.9l-1-10.1L3.2 27l.1 7.3 7.7.6zm-.9-17l-1.9-1.1c-1.5 1.5-2.8 3.1-3.9 4.9l-.8 3.9 6.4-2 .2-5.7zM6.8 48.6l-2.2 1.7c1.7 2.6 3.9 4.9 6.4 6.8l1.9-1.4-6.1-7.1zM2 27.1l-.3.1c-.8 2.4-1.3 5-1.4 7.5l1.8-.3-.1-7.3zm4.1 20.5l.2-.1-.8-4.8-4.3-.3c.6 2.4 1.6 4.8 2.9 6.9l2-1.7zm.7-11.8l-4-.3-2.4.4c0 1.7.2 3.4.5 5.1l4.7.3 1.2-5.5zM25.7 9.1l-1 .1 1.7 1.2 5.6-.3.1-.5c-1.3-.3-2.7-.4-4-.5V2.9h10.7V.5H15v2.4h10.7v6.2z"/></svg>