<svg xmlns="http://www.w3.org/2000/svg" width="129" height="300" viewBox="0 0 129 300"><path d="M77.679 235.714c0-7.366-6.027-13.393-13.393-13.393s-13.393 6.027-13.393 13.393 6.027 13.393 13.393 13.393 13.393-6.027 13.393-13.393zm34.821-26.785V91.072c0-2.846-2.511-5.357-5.357-5.357H21.429c-2.846 0-5.357 2.511-5.357 5.357v117.857c0 2.846 2.511 5.357 5.357 5.357h85.714c2.846 0 5.357-2.511 5.357-5.357zM80.357 66.964a2.645 2.645 0 00-2.679-2.679H50.892c-1.507 0-2.679 1.172-2.679 2.679s1.172 2.679 2.679 2.679h26.786a2.645 2.645 0 002.679-2.679zm48.214-2.678v171.429c0 11.719-9.71 21.429-21.429 21.429H21.428c-11.719 0-21.429-9.71-21.429-21.429V64.286c0-11.719 9.71-21.429 21.429-21.429h85.714c11.719 0 21.429 9.71 21.429 21.429z"/></svg>