<svg xmlns="http://www.w3.org/2000/svg" viewBox="0 0 300 300"><path d="M150 193.9c24 0 43.9-19.9 43.9-43.9S174 106.1 150 106.1 106.1 126 106.1 150s19.9 43.9 43.9 43.9zm93.2-31.6l26.4 20.5c2.3 1.8 2.9 5.3 1.2 8.2l-25.2 43.4c-1.8 2.9-4.7 3.5-7.6 2.3l-31.1-12.3c-6.4 4.7-13.5 9.4-21.1 12.3l-4.7 32.8c-.6 2.9-2.9 5.3-5.9 5.3h-50.4c-2.9 0-5.3-2.3-5.9-5.3l-4.7-32.8c-7.6-2.9-14.6-7-21.1-12.3L62 236.7c-2.9 1.2-5.9.6-7.6-2.3L29.3 191c-1.8-2.9-1.2-6.4 1.2-8.2l26.4-20.5c-.6-4.1-.6-8.2-.6-12.3s0-8.2.6-12.3l-26.4-20.5c-2.3-1.8-2.9-5.3-1.2-8.2l25.2-43.4c1.8-2.9 4.7-3.5 7.6-2.3l31.1 12.3c6.4-4.7 13.5-9.4 21.1-12.3l4.7-32.8c.6-2.9 2.9-5.3 5.9-5.3h50.4c2.9 0 5.3 2.3 5.9 5.3l4.7 32.8c7.6 2.9 14.6 7 21.1 12.3l31.1-12.3c2.9-1.2 5.9-.6 7.6 2.3l25.2 43.4c1.8 2.9 1.2 6.4-1.2 8.2l-26.4 20.5c.6 4.1.6 8.2.6 12.3s-.1 8.2-.7 12.3z" fill="#1ebe8c"/></svg>