<svg xmlns="http://www.w3.org/2000/svg" viewBox="0 0 300 300"><path d="M146.6 127.6c0 16-13.9 29.1-31.1 29.1s-31.1-13.1-31.1-29.1c0-16.2 13.9-29.1 31.1-29.1s31.1 12.9 31.1 29.1zm72.4 0c0 16-13.8 29.1-31.1 29.1-17.1 0-31.1-13.1-31.1-29.1 0-16.2 13.9-29.1 31.1-29.1 17.2 0 31.1 12.9 31.1 29.1zm32.4 25.9v-96c0-16.6-5.3-23.1-20.6-23.1H70.7c-16 0-20.5 5.4-20.5 23.1v96.8c34.1 17.9 63.4 14.7 79.3 14.1 6.8-.2 11.1 1.1 13.7 3.9.4.4.9.9 1.5 1.3 3 2.8 5.9 5.2 8.8 7.3.6-7.9 5.1-13 17-12.6 16.2.9 46.1 4 80.9-14.8zm23.4-.7c-9.2 11.4-26.7 25.4-53.6 36.3 28.4 96.6-69.2 112-67.7 62.5 0 .9-.2-26.7-.2-47-2.2-.4-4.3-1-6.9-1.5 0 20.6-.2 49.5-.2 48.7 1.5 49.5-96.1 34.1-67.7-62.5-26.7-10.9-44.4-24.9-53.6-36.3-4.6-6.9.4-14.3 8.1-8.9 1 .7 2.2 1.5 3.2 2.2V46c.1-13.8 10.5-25 23.3-25h181c12.8 0 23.2 11.3 23.2 25v100l3-2.2c7.7-5.3 12.7 2 8.1 9z" fill="#1ebe8c"/></svg>