<svg data-name="レイヤー 1" xmlns="http://www.w3.org/2000/svg" viewBox="0 0 279 279"><circle cx="139.5" cy="139.5" r="128.57" fill="#70aecd"/><path d="M216.24 101.43a67.16 67.16 0 01-15.7 16.17c.1 1.36.1 2.72.1 4.07 0 41.37-31.48 89-89 89a88.37 88.37 0 01-48-14 64.85 64.85 0 007.56.39 62.67 62.67 0 0038.8-13.39A31.34 31.34 0 0180.71 162a39.49 39.49 0 005.91.49 32.92 32.92 0 008.23-1.07 31.3 31.3 0 01-25.09-30.71v-.39a31.56 31.56 0 0014.15 4 31.34 31.34 0 01-9.69-41.85 89 89 0 0064.52 32.74A35 35 0 01138 118a31.33 31.33 0 0154.16-21.41A61.83 61.83 0 00212 89a31.26 31.26 0 01-13.76 17.24 62.84 62.84 0 0018-4.84z" fill="#fff"/></svg>